#define im_width 64
#define im_height 64
static char im_bits[] = {
0x00,0x00,0x00,0x00,0x00,0x00,0x00,0x00,0x00,0x00,0x00,0x00,0x00,0x00,0x00,
0x00,0x00,0x00,0x00,0x00,0x00,0x00,0x00,0x00,0x00,0x00,0x00,0x00,0x00,0x00,
0x00,0x00,0x00,0x00,0x00,0x00,0x00,0x00,0x00,0x00,0x00,0x00,0x00,0x00,0x00,
0x00,0x00,0x00,0x00,0x00,0x00,0x00,0x00,0x00,0x00,0x00,0x00,0x00,0x00,0x00,
0x00,0x00,0x00,0x00,0x00,0x00,0x00,0x00,0x00,0x00,0x00,0x00,0x00,0x00,0x00,
0x00,0x00,0x00,0x00,0x00,0x00,0x00,0x00,0x00,0x00,0x00,0x00,0x00,0x00,0x80,
0x03,0x00,0x00,0x00,0x00,0x00,0x00,0x80,0x03,0x00,0x00,0x00,0x00,0x00,0x00,
0xe0,0x0f,0x00,0x00,0x00,0x00,0x00,0x00,0xe0,0x0f,0x00,0x00,0x00,0x00,0x00,
0x00,0xe0,0x0f,0x00,0x00,0x00,0x00,0x00,0x00,0xf8,0x03,0x00,0x00,0x00,0x00,
0x00,0x00,0xf8,0x03,0x00,0x00,0x00,0x00,0x00,0x00,0xf8,0x03,0x00,0x00,0x00,
0x00,0x00,0x00,0xf8,0x03,0x00,0x00,0x00,0x00,0x00,0x00,0xe0,0x00,0x00,0x00,
0x00,0x00,0x00,0x00,0x00,0x00,0x00,0x00,0x00,0x00,0x00,0x00,0x00,0x00,0x00,
0x00,0x00,0x00,0x00,0x00,0x00,0x00,0x00,0x00,0x00,0x00,0x00,0x00,0x00,0x00,
0x00,0x00,0x00,0x00,0x00,0x00,0x00,0x00,0x00,0x00,0x00,0x00,0x00,0x00,0x00,
0x00,0x00,0x00,0x00,0x00,0x00,0x00,0x00,0x00,0x00,0x00,0x00,0x00,0x00,0x18,
0x00,0x00,0x00,0x00,0x00,0x00,0x00,0x18,0x00,0x00,0x00,0x00,0x00,0x00,0x00,
0x1c,0x00,0x00,0x00,0x00,0x00,0x00,0x00,0x7c,0x00,0x00,0x7c,0x00,0x3e,0x00,
0x00,0x7c,0x00,0x00,0x7c,0x00,0x3e,0x00,0x00,0xfc,0x07,0xe0,0xff,0x01,0xfe,
0x00,0x00,0xf8,0xff,0xff,0xff,0x81,0x3f,0x00,0x00,0xf8,0xff,0xff,0xff,0x81,
0x3f,0x00,0x00,0x80,0xff,0xff,0x3f,0x00,0xf0,0x07,0x00,0x80,0xff,0xff,0x3f,
0x00,0xf0,0x07,0x00,0x60,0xf8,0x7f,0x00,0xc0,0xff,0x1f,0x00,0x60,0x00,0x00,
0x0c,0xf0,0xff,0x3f,0x01,0x60,0x00,0x00,0x0c,0xf0,0xff,0x3f,0x01,0x60,0x80,
0x7f,0x0e,0xf0,0xff,0x3f,0x3f,0x60,0x80,0x7f,0x0e,0xf0,0xff,0x3f,0x3f,0x80,
0xff,0x1c,0x02,0xfc,0xff,0xff,0x3e,0xe0,0xff,0xe3,0x01,0xfe,0xff,0xff,0x1e,
0xe0,0xff,0xe3,0x01,0xfe,0xff,0xff,0x1e,0xe0,0xe0,0x0f,0x80,0xff,0xff,0xff,
0x1f,0xe0,0xe0,0x0f,0x80,0xff,0xff,0xff,0x1f,0x00,0x00,0x1f,0x40,0xfe,0xff,
0xff,0x07,0x00,0x00,0x0c,0x8e,0xff,0xff,0xe7,0x01,0x00,0x00,0x0c,0x8e,0xff,
0xff,0xe7,0x01,0x00,0x00,0xf0,0xc1,0xfd,0xff,0xe7,0x01,0x00,0x00,0xf0,0xc1,
0xfd,0xff,0xe7,0x01,0x00,0x00,0x00,0x80,0xfd,0xf7,0xf9,0x01,0x00,0x00,0x00,
0x00,0xfe,0x07,0xf8,0x07,0x00,0x00,0x00,0x00,0xfe,0x07,0xf8,0x07,0x00,0x80,
0x00,0x00,0xfe,0x07,0xe0,0x07,0x00,0x80,0x03,0x00,0xfc,0x01,0xe0,0x07,0x00,
0x80,0x03,0x00,0xfc,0x01,0xe0,0x07,0x00,0x00,0x00,0x00,0xfe,0x01,0x00,0x00,
0x00,0x00,0x00,0x00,0xfe,0x01,0x00,0x00,0x00,0x00,0x00,0x00,0x3e,0x00,0x00,
0x00,0x00,0x00,0x00,0x00,0x00,0x00,0x00,0x00,0x00,0x00,0x00,0x00,0x00,0x00,
0x00,0x00
};
