#define im_width 64
#define im_height 64
static char im_bits[] = {
0x00,0x00,0x00,0x00,0x00,0x00,0x00,0x00,0x00,0x00,0x00,0x00,0x00,0x00,0x00,
0x00,0x00,0x00,0xfc,0x00,0x00,0x00,0x00,0x00,0x00,0x00,0xff,0x07,0x00,0x00,
0x00,0x00,0x00,0x00,0xff,0x07,0x00,0x00,0x00,0x00,0x00,0xc0,0xff,0x07,0x00,
0xf8,0x00,0x00,0x00,0xc0,0xff,0x07,0x00,0xf8,0x00,0x00,0x00,0xc0,0x7f,0x00,
0x00,0xff,0x07,0x00,0x00,0xc0,0x7f,0x00,0x00,0xff,0x07,0x00,0x00,0xe0,0x1f,
0x00,0xc0,0xff,0x07,0x00,0x00,0xe0,0xe3,0x00,0x00,0xff,0x03,0x00,0x00,0xe0,
0xe3,0x00,0x00,0xff,0x03,0x00,0x00,0xe0,0xf0,0x00,0x00,0x78,0x20,0x00,0x00,
0xe0,0xf0,0x00,0x00,0x78,0x20,0x00,0x00,0xe0,0x70,0xc0,0x0f,0x00,0x38,0x00,
0x00,0xe0,0x70,0xc0,0x0f,0x00,0x38,0x00,0x00,0x00,0x00,0xf0,0x1f,0x00,0x38,
0x00,0x00,0x00,0x00,0x00,0x0e,0xb8,0x23,0x00,0x00,0x00,0x00,0x00,0x0e,0xb8,
0x23,0x00,0x00,0x00,0x00,0x00,0x00,0xb9,0x03,0x00,0x00,0x00,0x00,0x00,0x00,
0xb9,0x03,0x00,0x00,0x00,0x00,0x00,0x00,0x30,0x00,0x00,0x00,0x00,0x00,0x0f,
0x00,0x00,0x00,0x00,0x00,0x00,0x00,0x0f,0x00,0x00,0x00,0x00,0x00,0x00,0xf0,
0xff,0x01,0x00,0x00,0x00,0x00,0x00,0xf0,0xff,0x01,0x00,0x00,0x00,0x00,0x00,
0xef,0xff,0x0f,0x00,0x00,0x00,0x00,0x00,0xef,0xff,0x0f,0x00,0x00,0x00,0x00,
0xdc,0x93,0xff,0x1f,0x00,0x00,0x00,0x80,0xdf,0x90,0x7f,0x02,0x00,0x00,0x00,
0x80,0xdf,0x90,0x7f,0x02,0x00,0x00,0x00,0xc0,0xdf,0x90,0xfc,0x3d,0x00,0x00,
0x00,0xc0,0xdf,0x90,0xfc,0x3d,0x00,0x00,0x00,0xf0,0x3f,0xef,0x4f,0xde,0x00,
0x00,0x00,0xf0,0x3f,0xef,0x4f,0xde,0x00,0x00,0x00,0xf0,0x3f,0xf0,0x7f,0xc2,
0x80,0x07,0x00,0xf8,0x3f,0x10,0x7c,0xc2,0xf0,0x1f,0x00,0xf8,0x3f,0x10,0x7c,
0xc2,0xf0,0x1f,0x00,0xf8,0x3f,0xe0,0xc3,0x3d,0xfe,0x1f,0x00,0xf8,0x3f,0xe0,
0xc3,0x3d,0xfe,0x1f,0x00,0xfe,0x3f,0xf0,0x0f,0x00,0xff,0x1f,0x00,0xfe,0x3f,
0xf0,0x0f,0x00,0xff,0x1f,0x00,0xfe,0x1f,0x60,0x3c,0xc0,0xff,0x1f,0x00,0xfe,
0x1f,0x10,0x0c,0xc0,0xff,0x07,0x00,0xfe,0x1f,0x10,0x0c,0xc0,0xff,0x07,0x00,
0xfe,0x03,0x00,0x00,0xe0,0xff,0x07,0x00,0xfe,0x03,0x00,0x00,0xe0,0xff,0x07,
0x00,0xf8,0x01,0x00,0x00,0xe0,0xff,0x07,0x00,0x40,0x00,0x00,0x00,0xf0,0xff,
0x03,0x00,0x40,0x00,0x00,0x00,0xf0,0xff,0x03,0x00,0x38,0x00,0x00,0x00,0xf0,
0xff,0x00,0x00,0x38,0x00,0x00,0x00,0xf0,0xff,0x00,0x00,0x30,0x00,0x00,0x00,
0xf0,0x7f,0x00,0x00,0x30,0x00,0x00,0x00,0xf0,0x7f,0x00,0x00,0x30,0x00,0x00,
0x00,0x10,0x3f,0x00,0x00,0x00,0x00,0x00,0x00,0xe0,0x0e,0x00,0x00,0x00,0x00,
0x00,0x00,0xe0,0x0e,0x00,0x00,0x00,0x00,0x00,0x00,0xf0,0x00,0x00,0x00,0x00,
0x00,0x00,0x00,0xf0,0x00,0x00,0x00,0x00,0x00,0x00,0x00,0x30,0x00,0x00,0x00,
0x00,0x00,0x00,0x00,0x30,0x00,0x00,0x00,0x00,0x00,0x00,0x00,0x0c,0x00,0x00,
0x00,0x00,0x00,0x00,0x00,0x00,0x00,0x00,0x00,0x00,0x00,0x00,0x00,0x00,0x00,
0x00,0x00
};
