#define im_width 64
#define im_height 64
static char im_bits[] = {
0x00,0x00,0x00,0x00,0x00,0x00,0x00,0x00,0x00,0x00,0x00,0x00,0x30,0x00,0x00,
0x00,0x00,0x00,0x00,0x00,0x30,0x00,0x00,0x00,0x00,0x00,0x00,0x00,0x38,0x00,
0x00,0x00,0x00,0x00,0x00,0x00,0x38,0x00,0x00,0x00,0x00,0x00,0x00,0x00,0x3c,
0x00,0x00,0x00,0x00,0x00,0x00,0x00,0x3e,0x00,0x00,0x00,0x00,0x00,0x00,0x00,
0x7e,0x00,0x00,0x00,0x00,0x00,0x00,0x00,0x7e,0x00,0x00,0x00,0x00,0x00,0x00,
0x00,0x7e,0x00,0x00,0x00,0x00,0x00,0x00,0x00,0x7e,0x00,0x00,0x00,0x00,0xf0,
0x00,0x00,0x7f,0x00,0x00,0x00,0x00,0xf0,0x07,0x80,0x7f,0x00,0x00,0x00,0x00,
0xe0,0x0f,0xc0,0xff,0x00,0x00,0x00,0x00,0xc0,0x1f,0x00,0xfe,0x00,0x00,0x00,
0x00,0x80,0x3f,0xc0,0x7e,0x00,0x00,0x00,0x00,0x80,0x3f,0x80,0x1d,0x00,0x80,
0x00,0x00,0x00,0x3f,0x80,0x1d,0x00,0xe0,0x00,0x00,0x00,0x78,0xce,0x10,0x00,
0x7e,0x00,0x00,0x00,0xb4,0x03,0x07,0x80,0x7f,0x00,0x00,0x00,0xac,0x03,0x80,
0xc0,0x3f,0x00,0x00,0x00,0x80,0xf8,0x03,0xc6,0x1f,0x00,0x00,0x00,0x60,0xfe,
0x1f,0x17,0x0e,0x00,0x00,0x00,0xf0,0xff,0xbf,0xfb,0x07,0x00,0x00,0x00,0xf8,
0xff,0xbf,0xfd,0x00,0x00,0x00,0x00,0xfc,0xfc,0x7f,0x7e,0x00,0x00,0x00,0x00,
0x74,0xfb,0x7b,0x60,0x00,0x00,0x3e,0x00,0xb6,0xbd,0xfb,0x01,0x00,0x00,0xfe,
0x1f,0x4a,0x3d,0xb9,0x15,0x00,0x00,0xf0,0x7f,0x5c,0x3e,0x80,0x0b,0x00,0x00,
0xc0,0x39,0xdd,0x3f,0x8e,0x17,0x00,0x00,0x00,0x07,0xd9,0xbf,0xdf,0x0f,0x00,
0x00,0x00,0x7c,0x01,0x1f,0x9f,0x17,0x00,0x00,0x00,0x00,0xc7,0x1e,0xbf,0x0f,
0x00,0x00,0x00,0x00,0xdd,0x1e,0xb0,0x07,0x00,0x00,0x00,0x00,0x8d,0x9e,0x80,
0x3b,0x00,0x00,0x00,0x00,0x68,0xde,0x87,0x1b,0x0e,0x00,0x00,0x00,0xd0,0xdf,
0x9f,0xe1,0x3f,0x00,0x00,0x00,0x30,0xbf,0xcf,0xf9,0x7f,0x00,0x00,0x00,0xb0,
0x3e,0xe7,0xf8,0xff,0x00,0x00,0x00,0xa0,0x9d,0x60,0xf1,0xff,0x03,0x00,0x00,
0x40,0xdc,0x89,0x0a,0xff,0x07,0x00,0x00,0x00,0xfe,0x41,0x19,0xb2,0x1f,0x00,
0x80,0x03,0x54,0x00,0x00,0x00,0x7c,0x00,0xe0,0x23,0x28,0x00,0x00,0x00,0x00,
0x00,0x78,0x60,0x01,0x00,0x00,0x00,0x00,0x00,0xbc,0x00,0x03,0x8c,0x00,0x00,
0x00,0x00,0x67,0x00,0x06,0xdc,0x07,0x00,0x00,0x00,0x07,0x00,0x0e,0x90,0x1f,
0x00,0x00,0x00,0x00,0x00,0xfc,0x00,0x3f,0x00,0x00,0x00,0x00,0x00,0x7c,0x00,
0x3f,0x00,0x00,0x00,0x00,0x00,0x3e,0x00,0x7f,0x00,0x00,0x00,0x00,0x00,0x3f,
0x00,0x7f,0x00,0x00,0x00,0x00,0x00,0x7f,0x00,0xfc,0x00,0x00,0x00,0x00,0x80,
0x7f,0x00,0xe0,0x00,0x00,0x00,0x00,0x80,0x5f,0x00,0x80,0x00,0x00,0x00,0x00,
0x80,0x1d,0x00,0x00,0x00,0x00,0x00,0x00,0x00,0x1d,0x00,0x00,0x00,0x00,0x00,
0x00,0x00,0x1c,0x00,0x00,0x00,0x00,0x00,0x00,0x00,0x3c,0x00,0x00,0x00,0x00,
0x00,0x00,0x00,0x3c,0x00,0x00,0x00,0x00,0x00,0x00,0x00,0x18,0x00,0x00,0x00,
0x00,0x00,0x00,0x00,0x18,0x00,0x00,0x00,0x00,0x00,0x00,0x00,0x00,0x00,0x00,
0x00,0x00
};
