#define im_width 64
#define im_height 64
static char im_bits[] = {
0x00,0x00,0x00,0x00,0x00,0x00,0x00,0x00,0x00,0x00,0x00,0x00,0x00,0x00,0x00,
0x00,0x00,0x00,0x00,0x00,0x00,0x00,0x00,0x00,0x00,0x00,0x00,0x00,0x00,0x00,
0x00,0x00,0x00,0x00,0x00,0x00,0x00,0x00,0x00,0x00,0x00,0x00,0x00,0x00,0x00,
0x00,0x00,0x00,0x00,0x00,0x00,0x00,0x00,0x00,0x00,0x00,0x00,0x00,0x00,0x00,
0x00,0x00,0x00,0x00,0x00,0x00,0x00,0x00,0x00,0x00,0x00,0x00,0x00,0x00,0x00,
0x00,0x00,0x00,0x00,0x00,0x00,0x00,0x00,0x00,0x00,0x00,0x00,0x00,0x00,0x00,
0x00,0x00,0x00,0x00,0x00,0x00,0x00,0x00,0x00,0x00,0x00,0x00,0x00,0x00,0x00,
0x00,0x00,0x00,0x00,0x00,0x00,0x00,0x00,0x00,0x00,0x00,0x00,0x00,0x00,0x00,
0x00,0x00,0x00,0x00,0x00,0x00,0x00,0x00,0x00,0x00,0x00,0x00,0xfe,0x0f,0x00,
0x00,0x00,0x00,0x00,0x02,0xfe,0x1f,0x00,0x00,0x00,0x00,0x00,0x80,0xfe,0x7f,
0x00,0x00,0x00,0x00,0x00,0x00,0xfd,0xff,0x00,0x00,0x00,0x00,0x01,0x00,0xfb,
0xfd,0x00,0x00,0x00,0xc0,0x01,0x00,0x3b,0xf8,0x00,0x00,0x00,0xe0,0x00,0x00,
0xcf,0x78,0x00,0x00,0x00,0xe0,0x00,0x00,0x77,0x7f,0x00,0x00,0x00,0xe0,0x00,
0x02,0xbf,0x3f,0x00,0x00,0x00,0xe0,0x00,0x80,0xf7,0x1f,0x00,0x00,0x00,0xc0,
0x00,0x81,0x37,0x1f,0x00,0x00,0x00,0x80,0x80,0xc0,0x6f,0x0f,0x00,0x00,0x00,
0x00,0x00,0xe0,0xaf,0xf3,0x01,0x00,0x00,0xf0,0x00,0xf0,0xdf,0xfc,0x07,0x00,
0x00,0xff,0x01,0xf8,0x1f,0xff,0x1f,0x00,0x80,0xef,0x03,0xfc,0xdf,0xff,0x7f,
0x00,0xc0,0xcf,0xaf,0xfe,0xbf,0xdf,0xff,0x00,0xf0,0xcf,0xf3,0xe3,0x7f,0xcf,
0xff,0x00,0xf8,0xdf,0xe3,0xe1,0xff,0xcf,0xff,0x03,0xf8,0xff,0xff,0xe1,0xff,
0xcc,0xff,0x07,0xf0,0x3f,0xe3,0xff,0xdf,0xff,0xff,0x1f,0xe0,0x3f,0xc3,0xe1,
0xbf,0xfe,0xff,0x1f,0xc0,0xff,0xe5,0xe0,0x7b,0xf3,0xff,0x1f,0x80,0xff,0xfa,
0xe1,0x7f,0xf3,0xff,0x03,0x00,0x7f,0xf5,0xf7,0xbf,0xff,0xff,0x00,0x00,0xfc,
0xfc,0xf7,0x77,0xff,0x7f,0x00,0x00,0x70,0xfe,0xe3,0x77,0xfe,0x3f,0x00,0x00,
0x00,0xfb,0xe1,0xa7,0xf9,0x0f,0x00,0x00,0x00,0xb3,0xe0,0x8f,0xf3,0x07,0x00,
0x00,0x20,0xb3,0xc0,0x9a,0xe7,0x00,0x00,0x00,0xe0,0x11,0xb0,0xda,0x0f,0x00,
0x00,0x00,0xc0,0x01,0xb8,0xdd,0x0f,0x00,0x00,0x00,0xe0,0x00,0x3c,0xde,0x1e,
0x00,0x00,0x00,0x60,0x00,0xfe,0x6b,0x06,0x00,0x00,0x00,0x40,0x00,0xff,0x6d,
0x00,0x00,0x00,0x00,0x40,0x00,0x73,0x07,0x00,0x00,0x00,0x00,0x60,0x80,0xb1,
0x06,0x00,0x00,0x00,0x00,0x60,0x80,0xef,0x01,0x00,0x00,0x00,0x00,0x60,0xc0,
0x73,0x00,0x00,0x00,0x00,0x00,0x40,0xe0,0x1c,0x00,0x00,0x00,0x00,0x00,0x40,
0xa0,0x0f,0x00,0x00,0x00,0x00,0x00,0x00,0xe0,0x03,0x00,0x00,0x00,0x00,0x00,
0x00,0xf0,0x00,0x00,0x00,0x00,0x00,0x00,0x00,0x10,0x00,0x00,0x00,0x00,0x00,
0x00,0x00,0x00,0x00,0x00,0x00,0x00,0x00,0x00,0x00,0x00,0x00,0x00,0x00,0x00,
0x00,0x00,0x00,0x00,0x00,0x00,0x00,0x00,0x00,0x00,0x00,0x00,0x00,0x00,0x00,
0x00,0x00
};
