#define im_width 44
#define im_height 48
static char im_bits[] = {
0x00,0x20,0x06,0x00,0x00,0x00,0x00,0x98,0x03,0x00,0x00,0x00,0x00,0xc6,0x00,
0x00,0x00,0x00,0x80,0x31,0x03,0x00,0x00,0x00,0x70,0xce,0x01,0x00,0x00,0x00,
0xb0,0xce,0x00,0x00,0x00,0x00,0x1a,0x1b,0x00,0x00,0x00,0x00,0xf4,0x0d,0x00,
0x00,0x00,0x00,0xf8,0x06,0x00,0x00,0x00,0x00,0xe8,0x03,0x00,0xc0,0x00,0x00,
0xc4,0x01,0x00,0xe0,0x00,0x00,0x64,0x61,0x00,0x70,0x00,0x00,0x20,0x39,0x00,
0x78,0x00,0x00,0x24,0x02,0x00,0x39,0x18,0x00,0x00,0x12,0x81,0x3d,0x0f,0x00,
0x00,0xe6,0x80,0x9c,0x0f,0x00,0x00,0x64,0x80,0xdc,0x07,0x00,0x00,0x20,0x00,
0xff,0x03,0x00,0x00,0xd8,0x41,0xff,0x00,0x00,0x00,0x98,0xfc,0xff,0x3f,0x00,
0x40,0x00,0xb7,0xcf,0x0f,0x00,0xc0,0xc0,0xb3,0xfe,0x07,0x00,0x40,0xe1,0xe1,
0xfb,0x00,0x00,0x80,0xff,0xe0,0x07,0x00,0x00,0xc0,0x3f,0x80,0x09,0x00,0x04,
0x00,0x1f,0x83,0x01,0x00,0x07,0x40,0x0e,0x80,0x03,0x00,0x03,0x00,0x0e,0x80,
0x03,0x80,0x01,0x00,0x3f,0xc1,0x07,0x60,0x00,0x00,0x0f,0x61,0x04,0x1f,0x00,
0x80,0x0e,0x01,0x08,0x00,0x00,0x40,0x1a,0x02,0x10,0x00,0x00,0x40,0x14,0x02,
0x30,0x00,0x00,0x00,0x28,0x02,0x60,0x00,0x00,0x30,0x10,0x04,0x40,0x00,0x00,
0x30,0x00,0x04,0x40,0x00,0x00,0x50,0x80,0x0c,0x20,0x07,0x00,0x40,0x80,0x2c,
0x20,0x07,0x00,0xe0,0x41,0x60,0x30,0x03,0x00,0xe4,0x41,0x62,0x30,0x02,0x00,
0x30,0x80,0x02,0xa0,0x02,0x00,0x36,0xc0,0x00,0xa0,0x02,0x00,0x3e,0x00,0x0a,
0xb0,0x06,0x00,0x1c,0x00,0x0a,0xd0,0x06,0x00,0x00,0x00,0x2e,0x40,0x04,0x00,
0x00,0x00,0x2f,0x00,0x00,0x00,0x00,0x00,0x20,0x00,0x00,0x00,0x00,0x00,0x00,
0x00,0x00,0x00
};
