#define im_width 64
#define im_height 64
static char im_bits[] = {
0x00,0x00,0x00,0x00,0x00,0x00,0x00,0x00,0x00,0x00,0x00,0x00,0x00,0x00,0x00,
0x00,0x00,0x00,0x00,0x00,0xff,0x00,0x00,0x00,0x00,0x00,0x00,0x00,0xff,0x00,
0x00,0x00,0x00,0x00,0x00,0xc0,0x00,0x00,0x00,0x00,0x00,0x00,0x00,0x30,0xf0,
0x01,0x00,0x00,0x00,0x00,0x00,0x30,0xf0,0x01,0x00,0x00,0x00,0x00,0x00,0x30,
0xfc,0x01,0x00,0x00,0x00,0x00,0x00,0x30,0xfc,0x01,0x00,0x00,0x00,0x00,0x00,
0x30,0xfc,0x07,0x00,0x00,0x00,0x00,0x00,0x30,0xfc,0x07,0x00,0x00,0x00,0x00,
0x00,0x00,0x0c,0x06,0x00,0x00,0x00,0x00,0x00,0x00,0x0c,0x06,0x00,0x00,0x00,
0x00,0x00,0x00,0x0c,0x06,0x00,0x00,0x00,0x00,0x00,0x00,0xfc,0x07,0x00,0x00,
0x00,0x00,0x00,0x00,0xfc,0x07,0x00,0x00,0x00,0x00,0x00,0x00,0xfc,0x07,0x00,
0x00,0x00,0x00,0x00,0x00,0xfc,0x07,0x00,0x00,0x00,0x00,0x00,0x00,0xf0,0x01,
0x00,0x00,0x00,0x00,0x00,0x00,0xf0,0x01,0x00,0x00,0x00,0x00,0x00,0x00,0x00,
0x00,0x00,0x00,0xf0,0xfe,0x07,0x00,0x00,0x00,0x00,0x00,0xf0,0xfe,0x07,0x00,
0x00,0x00,0x00,0x00,0x3c,0xff,0x01,0x00,0x00,0x00,0x00,0x00,0x3c,0xff,0x01,
0x00,0x00,0x00,0x00,0x00,0x3c,0x7f,0x1e,0x00,0x00,0x00,0x00,0x00,0x3c,0x7f,
0x1e,0x00,0x00,0x00,0x00,0x00,0x0c,0x7f,0xfe,0x03,0x00,0x00,0x00,0x00,0x00,
0x60,0x86,0x03,0x00,0x00,0x00,0x00,0x00,0x60,0x86,0x03,0x00,0x00,0x00,0x00,
0x00,0x00,0x86,0x00,0x00,0x00,0x00,0x00,0x00,0x00,0x86,0x00,0x00,0x00,0x00,
0x00,0x00,0x80,0x87,0x00,0x3c,0x00,0x00,0x00,0x00,0x80,0x87,0x00,0x3c,0x00,
0x00,0x00,0x00,0x80,0xff,0xc0,0xcf,0x01,0x00,0x00,0x00,0x80,0xff,0xc0,0xcf,
0x01,0x00,0x00,0x00,0x00,0xe0,0xf0,0xcc,0x07,0x00,0x00,0x00,0x00,0x00,0x30,
0xf3,0xe7,0x07,0x00,0x00,0x00,0x00,0x30,0xf3,0xe7,0x07,0x00,0x3c,0x00,0x00,
0x3c,0xf3,0x19,0x00,0x00,0x3c,0x00,0x00,0x3c,0xf3,0x19,0x00,0x00,0xf0,0x01,
0x00,0xcf,0xfc,0xf9,0xff,0x00,0xf0,0x01,0x00,0xcf,0xfc,0xf9,0xff,0x00,0xf0,
0x07,0x00,0xc0,0xfc,0x1e,0x00,0x00,0x00,0x1f,0x00,0xf0,0x00,0x7f,0x00,0x00,
0x00,0x1f,0x00,0xf0,0x00,0x7f,0x00,0x00,0x00,0x00,0x00,0x30,0x00,0x00,0x00,
0x00,0x00,0x00,0x00,0x30,0x00,0x00,0x00,0x00,0x00,0x00,0x00,0x30,0x00,0x00,
0x00,0x00,0x00,0x00,0x00,0x30,0x00,0x00,0x00,0x00,0x00,0x00,0x00,0x00,0x00,
0x00,0x00,0x00,0x00,0x00,0x00,0x00,0x00,0x00,0x00,0x00,0x00,0x00,0x00,0x00,
0x00,0x18,0x00,0x00,0x00,0x00,0x00,0x00,0x00,0x00,0x00,0x00,0x00,0x00,0x00,
0x00,0x00,0x00,0x00,0x00,0x00,0x01,0x00,0x00,0x00,0x00,0x00,0x30,0x00,0x01,
0x00,0x00,0x00,0x00,0x00,0x30,0xc0,0x01,0x00,0x00,0x00,0x00,0x00,0x00,0xc0,
0x01,0x00,0x00,0x00,0x00,0x00,0x00,0x00,0x00,0x00,0x0c,0x00,0x00,0x00,0x00,
0x00,0x00,0x00,0x0f,0x00,0x00,0x00,0x00,0x00,0x00,0x00,0x0f,0x00,0x00,0x00,
0x00,0x00,0x00,0x00,0x00,0x00,0x00,0x00,0x00,0x00,0x00,0x00,0x00,0x00,0x00,
0x00,0x00
};
