#define im_width 64
#define im_height 64
static char im_bits[] = {
0x00,0x00,0x00,0x00,0x00,0x00,0x00,0x7e,0x1e,0x00,0x00,0x00,0x00,0x00,0x00,
0x7f,0x7e,0x00,0x00,0x00,0x00,0x00,0xe0,0x03,0xe0,0x01,0x00,0x00,0x00,0x00,
0x3e,0x00,0x80,0x03,0x00,0x00,0x00,0x80,0x0f,0x00,0x00,0x0e,0x00,0x00,0x00,
0xc0,0x03,0x00,0x00,0x1c,0x00,0x00,0x00,0xf0,0x00,0x00,0x00,0x3c,0x00,0x00,
0x00,0x7c,0x00,0x00,0x00,0x70,0x00,0x00,0x00,0x1c,0x00,0x00,0x00,0xe0,0x00,
0x00,0x00,0x0f,0x00,0x00,0x00,0xc0,0x01,0x00,0x80,0x03,0x00,0x00,0x00,0x80,
0x03,0x00,0xc0,0x03,0x00,0x00,0x00,0x00,0x03,0x00,0xc0,0x01,0x00,0x00,0x00,
0x00,0x06,0x00,0x60,0x00,0x00,0x00,0x00,0x00,0x06,0x00,0x60,0x00,0x00,0x00,
0x00,0x00,0x04,0x00,0x40,0x00,0x00,0x00,0x00,0x00,0x04,0x00,0x40,0x00,0x00,
0x00,0x00,0x68,0x00,0x00,0xc0,0x00,0x00,0x00,0x00,0x76,0x02,0x00,0x80,0x00,
0x38,0x00,0x00,0x38,0x02,0x00,0x00,0x01,0x3c,0x00,0x00,0x1e,0x02,0x00,0x80,
0x01,0x3c,0x00,0x00,0x0f,0x03,0x00,0x00,0x02,0x3c,0x00,0x00,0x07,0x01,0x80,
0x01,0x02,0x7c,0x00,0x80,0x03,0x01,0x41,0x03,0x02,0x7c,0x00,0x80,0x41,0x01,
0xbe,0x02,0x00,0xf0,0x00,0xc0,0x60,0x81,0xfd,0x03,0x00,0xcc,0x01,0x00,0x70,
0xc1,0xff,0x07,0x00,0x3f,0x03,0x00,0x78,0xc3,0x3f,0x06,0x80,0xff,0x00,0x00,
0x7c,0x03,0x9f,0x0e,0xc2,0xff,0x03,0x00,0xfc,0x82,0xbf,0x0f,0xc3,0xff,0x00,
0x00,0xfc,0xc2,0xff,0x1f,0xc2,0x7f,0x00,0x00,0xfc,0xc0,0xff,0x1f,0xc3,0x3f,
0x00,0x00,0xfc,0x04,0x1f,0xbf,0xc1,0x3f,0x00,0x00,0x7c,0xcc,0xc0,0xce,0xc1,
0x1f,0x00,0x00,0x78,0x70,0x40,0x7e,0xc0,0x0f,0x00,0x00,0x70,0x60,0x40,0x3c,
0x80,0x0f,0x00,0x00,0x70,0x80,0x00,0x1c,0x80,0x07,0x00,0x00,0x20,0x80,0x00,
0x0c,0x00,0x07,0x00,0x00,0x20,0x80,0x00,0x1c,0x00,0x07,0x00,0x00,0x00,0x00,
0x00,0x1c,0x00,0x02,0x00,0x00,0x00,0x00,0x01,0x3c,0x00,0x00,0x00,0x00,0x00,
0x00,0x01,0x3c,0x00,0x00,0x00,0x00,0x00,0x00,0x01,0x3c,0x00,0x00,0x00,0x00,
0x00,0x00,0x01,0x3c,0x00,0x00,0x00,0x00,0x00,0x00,0x01,0x3c,0x00,0x00,0x00,
0x00,0x00,0x00,0x01,0x3c,0x00,0x00,0x00,0x00,0x00,0x00,0x01,0x3c,0x00,0x00,
0x00,0x00,0x00,0x00,0x01,0x3c,0x00,0x00,0x00,0x00,0x00,0x00,0x01,0x3c,0x00,
0x00,0x00,0x00,0x00,0x00,0x01,0x3c,0x00,0x00,0x00,0x00,0x00,0x80,0x00,0x3c,
0x00,0x00,0x00,0x00,0x00,0x80,0x41,0x3c,0x00,0x00,0x00,0x00,0x00,0x80,0xc1,
0x1e,0x03,0x00,0x00,0x00,0xc0,0x00,0xc1,0x8e,0x03,0x00,0x00,0x00,0xc0,0x43,
0x83,0x9f,0x01,0x00,0x00,0x00,0x00,0x37,0xfe,0xfb,0x01,0x00,0x00,0x00,0x00,
0x3c,0xfc,0xf3,0x00,0x00,0x00,0x00,0x00,0x1c,0xf0,0xe1,0x00,0x00,0x00,0x00,
0x00,0x18,0x00,0xc0,0x00,0x00,0x00,0x00,0x00,0x38,0x00,0x40,0x00,0x00,0x00,
0x00,0x00,0x30,0x00,0x40,0x00,0x00,0x00,0x00,0x00,0x00,0x00,0x40,0x00,0x00,
0x00,0x00,0x00,0x00,0x00,0x40,0x00,0x00,0x00,0x00,0x00,0x00,0x00,0x00,0x00,
0x00,0x00
};
