#define im_width 64
#define im_height 64
static char im_bits[] = {
0x00,0x00,0x00,0x00,0x18,0x00,0x00,0x00,0x00,0x00,0x00,0x00,0x1c,0x00,0x00,
0x00,0x00,0x00,0x00,0x00,0x3e,0x00,0x00,0x00,0x00,0x00,0x00,0x00,0x3c,0x00,
0x00,0x00,0x00,0x00,0x00,0x00,0x3c,0x00,0x00,0x00,0x00,0x00,0x00,0x00,0x3c,
0x00,0x00,0x00,0x00,0x00,0x00,0x00,0x18,0x00,0x00,0x00,0x00,0x00,0x00,0x00,
0x08,0x00,0x00,0x00,0x00,0x00,0x00,0x00,0x08,0x00,0x00,0x00,0x00,0x00,0x00,
0x00,0x08,0x00,0x00,0x00,0x00,0x00,0x00,0x00,0x08,0x00,0x00,0x00,0x00,0x00,
0x00,0x00,0x08,0x00,0x00,0x00,0x00,0x00,0x00,0x00,0x08,0x00,0x00,0x00,0x00,
0x00,0x00,0x00,0x18,0x00,0x00,0x00,0x00,0x00,0x00,0x00,0x18,0x00,0x00,0x00,
0x00,0x00,0x00,0x00,0x1c,0x00,0x00,0x00,0x00,0x00,0x00,0x00,0x00,0x00,0x80,
0x01,0x00,0x00,0x00,0xf0,0x01,0x00,0xc0,0x07,0x00,0x80,0x07,0xfe,0x07,0x00,
0x20,0x06,0x00,0x00,0x80,0xff,0x0f,0x00,0x00,0x08,0x00,0x00,0x80,0xff,0x0f,
0x00,0x00,0x08,0x00,0x00,0xe0,0xff,0x1f,0x00,0x80,0x00,0x00,0x00,0x18,0x00,
0x00,0x00,0x80,0x01,0x00,0x00,0xe0,0xff,0xff,0x03,0x00,0x00,0x00,0x00,0x7e,
0xfc,0xff,0x07,0xc0,0x00,0x00,0x70,0x3f,0xf8,0xff,0x0f,0x3c,0x00,0x00,0xbc,
0x3f,0xf8,0xff,0x0f,0xff,0x00,0x00,0x9e,0x3f,0xf8,0xff,0x9f,0xff,0x00,0x00,
0x9e,0x3f,0xf8,0xff,0x9f,0xff,0x00,0x00,0xcf,0x3f,0xf8,0xff,0xdf,0xff,0x00,
0x00,0xcd,0x7f,0xfc,0xff,0xdf,0xfb,0x00,0x00,0x07,0x00,0x00,0x00,0xfc,0x7f,
0x00,0x00,0xc0,0xff,0xff,0xff,0x01,0x00,0x00,0xe0,0x73,0x00,0x00,0x80,0xff,
0xff,0x00,0x38,0x00,0x00,0x00,0x00,0x00,0x00,0x1f,0x00,0x00,0x00,0x00,0x00,
0x00,0x00,0x70,0x00,0x00,0x00,0x00,0x00,0x00,0x00,0x70,0x00,0x00,0x00,0x00,
0x00,0x00,0x00,0x00,0x00,0x10,0x00,0x00,0x00,0x00,0x00,0x00,0x00,0x18,0x00,
0x00,0x00,0x00,0x00,0x00,0x00,0xa3,0x01,0x00,0x00,0x00,0x0e,0x00,0xc0,0x21,
0x03,0x00,0x00,0x82,0x07,0x00,0xe0,0x40,0x07,0x00,0xa0,0xc5,0x03,0x00,0x70,
0x00,0x0e,0x00,0x50,0xe2,0x01,0x00,0x70,0x00,0x0e,0x00,0x50,0xe2,0x01,0x00,
0x18,0x00,0x38,0x00,0xa8,0xf5,0x00,0x00,0x0e,0x00,0xf8,0x00,0x50,0x3a,0x00,
0x00,0x00,0x00,0xe0,0x03,0xa8,0x19,0x00,0x00,0x00,0x00,0x80,0x7f,0x50,0x03,
0x00,0x00,0x00,0x00,0x00,0xfe,0xff,0x03,0x00,0x00,0x00,0x00,0x00,0xe0,0xff,
0x00,0x00,0x00,0xc0,0x00,0x00,0x00,0x00,0x00,0x00,0x00,0xc0,0x00,0x00,0x00,
0x00,0x00,0x00,0x00,0xe0,0x00,0x00,0x00,0x00,0x00,0x00,0x00,0x70,0x00,0x00,
0x00,0x00,0x00,0x07,0x00,0x38,0x00,0x00,0x00,0x00,0x80,0x03,0x00,0x00,0x00,
0x00,0x00,0x00,0xc0,0x01,0x00,0x00,0x00,0x00,0x00,0x00,0xe0,0x00,0x00,0x00,
0x00,0x00,0x00,0x00,0x00,0x00,0x00,0x00,0x00,0x00,0x00,0x00,0x00,0x00,0x00,
0x00,0x00,0x00,0x00,0x00,0x00,0x00,0x00,0x00,0x00,0x00,0x00,0x00,0x00,0x00,
0x00,0x00,0x00,0x00,0x00,0x00,0x00,0x00,0x00,0x00,0x00,0x00,0x00,0x00,0x00,
0x00,0x00
};
